PathFileType	4	(X/Y/Z)	 s09c0101.trc
DataRate	CameraRate	NumFrames	NumMarkers	Units	OrigDataRate	OrigDataStartFrame	OrigNumFrames
200	200	4	50	mm	200	751	2000
Frame#	Time	racr			lacr			c7			jug			rlel			rdr			llel			ldr			s2			lic			ric			lasi			rasi			rpsi			lpsi			rgt			lgt			rth1			rth2			rth3			rth4			rlfc			rmfc			rsh1			rsh2			rsh3			rsh4			rlmal			rmmal			rcal			rtoe			rmt5			lth1			lth2			lth4			lth3			llfc			lmfc			llmal			lmmal			lcal			lmt5			lsh1			lsh2			lsh3			lsh4			ltoe			SBIKE			LBIKE			RBIKE			
		X1	Y1	Z1	X2	Y2	Z2	X3	Y3	Z3	X4	Y4	Z4	X5	Y5	Z5	X6	Y6	Z6	X7	Y7	Z7	X8	Y8	Z8	X9	Y9	Z9	X10	Y10	Z10	X11	Y11	Z11	X12	Y12	Z12	X13	Y13	Z13	X14	Y14	Z14	X15	Y15	Z15	X16	Y16	Z16	X17	Y17	Z17	X18	Y18	Z18	X19	Y19	Z19	X20	Y20	Z20	X21	Y21	Z21	X22	Y22	Z22	X23	Y23	Z23	X24	Y24	Z24	X25	Y25	Z25	X26	Y26	Z26	X27	Y27	Z27	X28	Y28	Z28	X29	Y29	Z29	X30	Y30	Z30	X31	Y31	Z31	X32	Y32	Z32	X33	Y33	Z33	X34	Y34	Z34	X35	Y35	Z35	X36	Y36	Z36	X37	Y37	Z37	X38	Y38	Z38	X39	Y39	Z39	X40	Y40	Z40	X41	Y41	Z41	X42	Y42	Z42	X43	Y43	Z43	X44	Y44	Z44	X45	Y45	Z45	X46	Y46	Z46	X47	Y47	Z47	X48	Y48	Z48	X49	Y49	Z49	X50	Y50	Z50	
751	3.7550	535.814675	1248.089466	-131.088782	523.089628	1221.166255	-435.495664	506.767193	1268.908515	-278.348250	474.244419	1132.537006	-270.175599	500.944269	1029.643698	3.310761	689.685277	874.850347	-36.041510	433.516081	965.417262	-516.371481	667.263592	886.023958	-446.787495	6.488275	1132.577963	-229.388531	131.292297	1128.258682	-396.289196	161.603315	1122.615152	-92.474225	178.428572	1070.722018	-373.369989	198.704241	1070.429424	-119.506197	46.491606	1162.805913	-173.515390	38.412890	1169.088352	-281.892644	138.769066	981.980100	-50.810001	101.843839	1000.758993	-428.454593	235.532920	888.638253	-63.766335	307.648099	839.545974	-71.162436	342.825726	758.026050	-77.590409	331.853645	859.009797	-90.912318	379.061171	663.836361	-107.517842	358.315946	648.747731	-203.944182	302.172330	598.029678	-76.184968	260.212362	519.976975	-91.312819	185.783815	473.841180	-89.639101	279.193617	506.589804	-123.671377	115.280000	404.736118	-88.823968	120.652497	406.876771	-164.433720	36.118671	423.082891	-126.151669	219.388227	232.618554	-123.190100	148.623856	278.646079	-60.844178	218.817693	919.730314	-432.017991	300.676997	897.143568	-428.365398	320.949949	928.078732	-419.252367	363.488953	832.373399	-427.014544	435.860732	759.187197	-410.665763	456.789037	749.742273	-311.424720	331.090337	402.398519	-409.800805	342.578261	418.010396	-333.718837	267.186460	346.197123	-369.476770	439.205047	353.526707	-436.243344	406.126888	661.510976	-429.155044	402.145890	575.186453	-418.189419	354.200712	500.757587	-414.763771	427.658714	570.718538	-387.933557	521.508118	400.859645	-368.470380	-65.104596	853.485256	-238.924040	20.751513	84.433287	-441.619232	21.308259	83.926848	-43.389840	
752	3.7600	535.063805	1248.893902	-131.880863	525.742889	1220.241962	-436.221362	507.952608	1269.296086	-279.535713	475.328602	1133.037199	-270.810543	499.512306	1029.625051	0.803868	689.414953	875.380769	-36.963172	434.792172	965.733462	-518.864105	667.514033	885.834323	-447.440455	7.902924	1133.642459	-234.024965	132.724095	1127.090237	-399.236079	161.433266	1124.592257	-96.086179	179.934787	1069.762625	-376.111328	198.798290	1072.266527	-122.199620	46.906282	1164.245680	-178.058154	36.932821	1171.129986	-286.424790	138.735339	984.571664	-53.889812	102.281831	1000.004752	-430.580580	236.423477	891.652821	-66.486509	308.995042	843.112844	-73.960466	344.891825	761.996868	-80.160231	333.061444	862.626708	-93.906840	381.913557	667.549643	-109.296808	360.109351	652.472991	-205.546328	304.068863	602.792265	-77.600148	260.790198	525.497162	-92.381677	185.553404	480.529917	-90.373733	279.303835	511.656686	-124.887051	113.697109	412.518356	-89.263803	119.825547	414.537469	-164.951983	34.266457	430.774358	-126.507501	217.849676	240.765828	-123.264497	147.060122	286.744692	-60.945582	217.962564	917.087153	-433.590976	299.430468	893.144282	-429.847478	320.237101	923.892417	-421.076740	361.167373	827.474560	-428.274909	433.418727	752.707510	-411.433188	454.209996	743.744311	-312.418688	332.246142	394.997170	-409.885902	344.668845	411.215181	-334.498772	268.733536	339.145705	-369.605168	440.860891	345.589989	-436.192545	404.255481	654.962378	-429.924570	401.585493	568.513014	-418.789016	354.729287	493.412720	-415.061400	427.299383	564.426694	-388.602834	523.451116	392.496538	-368.510702	-65.076915	853.374628	-239.042640	20.740128	84.411981	-441.637925	21.298407	83.952474	-43.411481	
753	3.7650	534.218440	1249.782009	-132.670872	528.415574	1219.342980	-436.756189	509.026056	1269.600503	-280.725173	476.329995	1133.458066	-271.311135	498.055836	1029.694066	-1.588138	689.225520	875.932832	-38.046004	436.307680	966.048967	-521.661409	667.857668	885.587395	-448.144903	9.290171	1134.434447	-238.780055	134.764521	1126.202699	-402.888777	160.784436	1126.867332	-99.912295	181.521034	1068.903116	-378.879737	198.927945	1074.314759	-124.970812	47.271962	1165.641115	-182.679941	37.659261	1171.695945	-290.809052	138.795281	987.322053	-56.995005	102.915264	999.120624	-432.577603	237.237571	894.673895	-69.472684	310.384287	847.150354	-76.928335	347.181332	766.358265	-82.584452	334.446100	866.994105	-96.180703	384.800963	671.595182	-111.149800	362.297781	656.460609	-207.106178	306.167915	607.751522	-79.035167	261.670682	531.064247	-93.504955	185.727526	487.300824	-91.023089	279.998244	516.975866	-125.879802	112.822751	420.412508	-89.531402	118.959302	422.342577	-165.143494	33.058740	438.781087	-126.700285	216.666164	248.899965	-123.304391	145.892050	294.972013	-60.960891	217.393834	914.360977	-434.814371	298.430307	889.177086	-431.077372	319.777882	919.648151	-422.610500	359.018972	822.405190	-429.062019	430.785273	746.544747	-411.447957	451.647511	737.335817	-313.097991	333.278439	387.844317	-410.107445	344.952027	402.478437	-333.018042	270.063132	332.279293	-369.602966	442.235083	337.498850	-436.128785	402.304167	648.335827	-430.392330	400.809886	561.860399	-419.105165	355.050028	486.161276	-415.309978	426.671856	558.202275	-389.140545	525.159671	383.762126	-368.480007	-65.110623	853.384499	-239.388940	20.722772	84.406273	-441.656720	21.298493	83.966606	-43.422910	
754	3.7700	533.280043	1250.581531	-133.267635	531.118011	1218.459895	-437.217376	510.221336	1270.198952	-282.076386	477.720905	1134.053300	-272.789919	496.443141	1029.738022	-3.828109	688.982399	876.528941	-39.269792	438.068622	966.630899	-524.550537	668.286851	885.314897	-448.967432	12.216555	1134.224366	-244.110485	136.800324	1125.371442	-406.583820	160.754930	1129.021319	-103.459032	183.152054	1068.020695	-381.671997	199.048697	1076.445751	-127.801477	47.663006	1167.123293	-187.429149	38.495485	1172.197684	-295.400225	138.873808	990.307617	-60.044438	103.749549	998.016530	-434.427938	238.602269	898.224200	-72.003704	312.058688	851.543218	-79.705675	349.963781	770.998433	-84.750187	335.746864	871.535038	-99.154003	387.923091	675.878058	-112.977228	364.529075	660.754796	-209.108017	308.707764	612.856855	-80.312065	263.349216	536.867238	-94.250811	186.337229	494.267649	-91.693670	280.902502	522.515043	-126.932904	112.399619	428.575850	-89.688665	118.376292	430.352788	-165.525840	32.423578	447.140841	-126.868584	215.923180	256.972862	-123.369816	145.204200	303.151395	-61.055150	216.855668	911.654606	-436.278796	297.649842	885.096193	-432.127364	319.578581	915.102460	-423.707335	357.138382	817.301295	-429.582399	427.931528	740.287514	-411.403878	448.120138	730.966050	-314.290848	334.086373	380.673794	-410.176324	345.835321	395.123628	-333.200336	271.023625	325.575363	-369.752520	443.247195	329.446599	-436.112158	400.179405	641.859174	-430.653532	399.858023	555.289905	-419.383312	355.199688	478.974829	-415.494527	425.845898	552.057433	-389.500354	526.595768	374.858953	-368.441541	-65.149068	853.425396	-239.780189	20.734517	84.350878	-441.690044	21.283579	83.996356	-43.472532	
